<svg width="40" height="44" viewBox="0 0 40 44" fill="none" xmlns="http://www.w3.org/2000/svg">
<path d="M39.2832 14.5781C39.3022 11.6801 38.0556 9.60296 35.4992 8.23921C33.5882 7.2164 33.6008 7.18483 33.6008 9.33778C33.6008 12.1537 33.6008 14.9632 33.6008 17.7791C33.6008 20.8476 33.6008 23.9223 33.6008 26.9907C33.6008 28.8533 32.7909 30.2486 31.1963 31.1704C27.3996 33.3738 23.5839 35.552 19.7808 37.7429C18.066 38.7278 16.3511 39.7253 14.6173 40.6913C14.0478 41.0133 14.0352 41.2091 14.6236 41.5184C15.4146 41.9288 16.136 42.4781 16.946 42.8317C18.876 43.6587 20.8313 43.6524 22.679 42.6044C27.0768 40.1168 31.4494 37.585 35.8219 35.0659C38.0683 33.7716 39.2643 31.8333 39.2643 29.2194C39.2643 24.339 39.2453 19.4586 39.2769 14.5781H39.2832Z" fill="#52D0B2"/>
<path d="M30.1899 26.3276C30.3101 25.6205 30.3228 24.9007 30.3165 24.1809C30.3101 21.6239 30.3165 19.0732 30.3165 16.5162H30.3228C30.3228 13.8455 30.3101 11.1748 30.3228 8.51049C30.3354 6.26914 29.4116 4.60234 27.4373 3.50377C25.906 2.65143 24.4126 1.72963 22.8749 0.88992C20.7488 -0.27179 18.5846 -0.322299 16.4585 0.883606C11.9974 3.42169 7.52357 5.95346 3.10673 8.57994C1.13244 9.74796 0.0313991 11.5852 0.0187434 13.9213C-0.0128958 19.0353 -0.00024008 24.1431 0.0124156 29.2571C0.0124156 31.8078 1.20838 33.6893 3.38516 34.9583C5.02407 35.9117 6.66298 36.8651 8.3272 37.7553C9.90283 38.6013 11.5354 38.6139 13.0984 37.7174C18.2556 34.7626 23.3875 31.7763 28.5383 28.8088C29.5128 28.2469 30.0001 27.3946 30.1899 26.3276ZM23.3685 25.3363C19.6983 27.4009 16.0092 29.4465 12.4087 31.6374C11.0798 32.4455 10.08 32.4581 8.75749 31.6058C8.41579 31.3911 8.13104 31.2207 7.8273 31.0186C6.44783 30.0968 5.63154 28.8467 5.63154 27.161C5.61888 23.6064 5.63154 20.0455 5.61888 16.4909C5.61888 14.6284 6.43518 13.2394 8.02347 12.3113C11.1431 10.493 14.269 8.68095 17.4266 6.91314C18.882 6.09868 20.3944 6.13656 21.8688 6.9447C22.4952 7.29195 23.0901 7.70865 23.7355 8.0054C24.3683 8.30214 24.5898 8.71252 24.5771 9.41334C24.5328 11.7052 24.5581 14.0034 24.5581 16.2952H24.5961C24.5961 18.5871 24.5771 20.8852 24.6024 23.1771C24.6151 24.1683 24.2417 24.8376 23.3622 25.3363H23.3685Z" fill="#52D0B2"/>
<path d="M21.2109 9.47032C21.2236 8.79476 21.0527 8.64323 20.4263 9.01573C17.2307 10.8846 14.0162 12.7282 10.808 14.5844C9.61199 15.2726 8.99819 16.3017 8.99819 17.6907C8.99819 21.422 9.00452 25.1534 8.98553 28.8848C8.98553 29.5856 9.1817 29.5982 9.71324 29.2762C11.1433 28.4239 12.5797 27.5842 14.0415 26.7823C14.4844 26.5361 14.6363 26.233 14.6236 25.7532C14.5983 24.8062 14.6173 23.8591 14.6173 22.9121C14.6173 22.0787 14.6616 21.2453 14.6047 20.4182C14.5287 19.3259 15.035 18.6377 15.9398 18.1263C17.4648 17.2677 18.9645 16.3585 20.4959 15.5188C21.0211 15.2347 21.2299 14.9 21.2173 14.3003C21.1793 12.6966 21.1919 11.0866 21.2173 9.47663L21.2109 9.47032Z" fill="#52D0B2"/>
</svg>
