<svg width="1011" height="292" viewBox="0 0 1011 292" fill="none" xmlns="http://www.w3.org/2000/svg">
<path d="M18.879 101V100.233L21.7597 97.0795C22.0977 96.7102 22.3762 96.3892 22.5949 96.1165C22.8137 95.8409 22.9756 95.5824 23.0807 95.3409C23.1887 95.0966 23.2426 94.8409 23.2426 94.5739C23.2426 94.267 23.1688 94.0014 23.021 93.777C22.8762 93.5526 22.6773 93.3793 22.4244 93.2571C22.1716 93.1349 21.8875 93.0739 21.5722 93.0739C21.2369 93.0739 20.9443 93.1435 20.6943 93.2827C20.4472 93.419 20.2554 93.6108 20.1191 93.858C19.9855 94.1051 19.9188 94.3949 19.9188 94.7273H18.9131C18.9131 94.2159 19.031 93.767 19.2668 93.3807C19.5026 92.9943 19.8236 92.6932 20.2298 92.4773C20.6389 92.2614 21.0977 92.1534 21.6063 92.1534C22.1176 92.1534 22.5708 92.2614 22.9656 92.4773C23.3605 92.6932 23.6702 92.9844 23.8946 93.3509C24.1191 93.7173 24.2313 94.125 24.2313 94.5739C24.2313 94.8949 24.173 95.2088 24.0566 95.5156C23.9429 95.8196 23.7441 96.1591 23.46 96.5341C23.1787 96.9062 22.7881 97.3608 22.2881 97.8977L20.3279 99.9943V100.062H24.3847V101H18.879ZM28.9912 101.119C28.3492 101.119 27.8023 100.945 27.3506 100.595C26.8989 100.243 26.5537 99.733 26.3151 99.0653C26.0764 98.3949 25.9571 97.5852 25.9571 96.6364C25.9571 95.6932 26.0764 94.8878 26.3151 94.2202C26.5566 93.5497 26.9031 93.0384 27.3548 92.6861C27.8094 92.331 28.3548 92.1534 28.9912 92.1534C29.6276 92.1534 30.1716 92.331 30.6233 92.6861C31.0779 93.0384 31.4244 93.5497 31.6631 94.2202C31.9046 94.8878 32.0253 95.6932 32.0253 96.6364C32.0253 97.5852 31.906 98.3949 31.6673 99.0653C31.4287 99.733 31.0835 100.243 30.6318 100.595C30.1801 100.945 29.6333 101.119 28.9912 101.119ZM28.9912 100.182C29.6276 100.182 30.1219 99.875 30.4742 99.2614C30.8264 98.6477 31.0026 97.7727 31.0026 96.6364C31.0026 95.8807 30.9216 95.2372 30.7597 94.706C30.6006 94.1747 30.3705 93.7699 30.0693 93.4915C29.771 93.2131 29.4117 93.0739 28.9912 93.0739C28.3605 93.0739 27.8676 93.3849 27.5125 94.0071C27.1574 94.6264 26.9798 95.5028 26.9798 96.6364C26.9798 97.392 27.0594 98.0341 27.2185 98.5625C27.3776 99.0909 27.6063 99.4929 27.9046 99.7685C28.2057 100.044 28.5679 100.182 28.9912 100.182ZM39.8662 101.119C39.2242 101.119 38.6773 100.945 38.2256 100.595C37.7739 100.243 37.4287 99.733 37.1901 99.0653C36.9514 98.3949 36.8321 97.5852 36.8321 96.6364C36.8321 95.6932 36.9514 94.8878 37.1901 94.2202C37.4316 93.5497 37.7781 93.0384 38.2298 92.6861C38.6844 92.331 39.2298 92.1534 39.8662 92.1534C40.5026 92.1534 41.0466 92.331 41.4983 92.6861C41.9529 93.0384 42.2994 93.5497 42.5381 94.2202C42.7796 94.8878 42.9003 95.6932 42.9003 96.6364C42.9003 97.5852 42.781 98.3949 42.5423 99.0653C42.3037 99.733 41.9585 100.243 41.5068 100.595C41.0551 100.945 40.5083 101.119 39.8662 101.119ZM39.8662 100.182C40.5026 100.182 40.9969 99.875 41.3492 99.2614C41.7014 98.6477 41.8776 97.7727 41.8776 96.6364C41.8776 95.8807 41.7966 95.2372 41.6347 94.706C41.4756 94.1747 41.2455 93.7699 40.9443 93.4915C40.646 93.2131 40.2867 93.0739 39.8662 93.0739C39.2355 93.0739 38.7426 93.3849 38.3875 94.0071C38.0324 94.6264 37.8548 95.5028 37.8548 96.6364C37.8548 97.392 37.9344 98.0341 38.0935 98.5625C38.2526 99.0909 38.4813 99.4929 38.7796 99.7685C39.0807 100.044 39.4429 100.182 39.8662 100.182ZM47.3662 101.119C46.7242 101.119 46.1773 100.945 45.7256 100.595C45.2739 100.243 44.9287 99.733 44.6901 99.0653C44.4514 98.3949 44.3321 97.5852 44.3321 96.6364C44.3321 95.6932 44.4514 94.8878 44.6901 94.2202C44.9316 93.5497 45.2781 93.0384 45.7298 92.6861C46.1844 92.331 46.7298 92.1534 47.3662 92.1534C48.0026 92.1534 48.5466 92.331 48.9983 92.6861C49.4529 93.0384 49.7994 93.5497 50.0381 94.2202C50.2796 94.8878 50.4003 95.6932 50.4003 96.6364C50.4003 97.5852 50.281 98.3949 50.0423 99.0653C49.8037 99.733 49.4585 100.243 49.0068 100.595C48.5551 100.945 48.0083 101.119 47.3662 101.119ZM47.3662 100.182C48.0026 100.182 48.4969 99.875 48.8492 99.2614C49.2014 98.6477 49.3776 97.7727 49.3776 96.6364C49.3776 95.8807 49.2966 95.2372 49.1347 94.706C48.9756 94.1747 48.7455 93.7699 48.4443 93.4915C48.146 93.2131 47.7867 93.0739 47.3662 93.0739C46.7355 93.0739 46.2426 93.3849 45.8875 94.0071C45.5324 94.6264 45.3548 95.5028 45.3548 96.6364C45.3548 97.392 45.4344 98.0341 45.5935 98.5625C45.7526 99.0909 45.9813 99.4929 46.2796 99.7685C46.5807 100.044 46.9429 100.182 47.3662 100.182ZM54.8662 101.119C54.2242 101.119 53.6773 100.945 53.2256 100.595C52.7739 100.243 52.4287 99.733 52.1901 99.0653C51.9514 98.3949 51.8321 97.5852 51.8321 96.6364C51.8321 95.6932 51.9514 94.8878 52.1901 94.2202C52.4316 93.5497 52.7781 93.0384 53.2298 92.6861C53.6844 92.331 54.2298 92.1534 54.8662 92.1534C55.5026 92.1534 56.0466 92.331 56.4983 92.6861C56.9529 93.0384 57.2994 93.5497 57.5381 94.2202C57.7796 94.8878 57.9003 95.6932 57.9003 96.6364C57.9003 97.5852 57.781 98.3949 57.5423 99.0653C57.3037 99.733 56.9585 100.243 56.5068 100.595C56.0551 100.945 55.5083 101.119 54.8662 101.119ZM54.8662 100.182C55.5026 100.182 55.9969 99.875 56.3492 99.2614C56.7014 98.6477 56.8776 97.7727 56.8776 96.6364C56.8776 95.8807 56.7966 95.2372 56.6347 94.706C56.4756 94.1747 56.2455 93.7699 55.9443 93.4915C55.646 93.2131 55.2867 93.0739 54.8662 93.0739C54.2355 93.0739 53.7426 93.3849 53.3875 94.0071C53.0324 94.6264 52.8548 95.5028 52.8548 96.6364C52.8548 97.392 52.9344 98.0341 53.0935 98.5625C53.2526 99.0909 53.4813 99.4929 53.7796 99.7685C54.0807 100.044 54.4429 100.182 54.8662 100.182Z" fill="#494953"/>
<path d="M21.0782 56V55.233L23.9589 52.0795C24.297 51.7102 24.5754 51.3892 24.7941 51.1165C25.0129 50.8409 25.1748 50.5824 25.2799 50.3409C25.3879 50.0966 25.4419 49.8409 25.4419 49.5739C25.4419 49.267 25.368 49.0014 25.2203 48.777C25.0754 48.5526 24.8765 48.3793 24.6237 48.2571C24.3708 48.1349 24.0867 48.0739 23.7714 48.0739C23.4362 48.0739 23.1436 48.1435 22.8936 48.2827C22.6464 48.419 22.4546 48.6108 22.3183 48.858C22.1847 49.1051 22.118 49.3949 22.118 49.7273H21.1123C21.1123 49.2159 21.2302 48.767 21.466 48.3807C21.7018 47.9943 22.0228 47.6932 22.4291 47.4773C22.8382 47.2614 23.297 47.1534 23.8055 47.1534C24.3169 47.1534 24.77 47.2614 25.1649 47.4773C25.5597 47.6932 25.8694 47.9844 26.0938 48.3509C26.3183 48.7173 26.4305 49.125 26.4305 49.5739C26.4305 49.8949 26.3722 50.2088 26.2558 50.5156C26.1421 50.8196 25.9433 51.1591 25.6592 51.5341C25.3779 51.9062 24.9873 52.3608 24.4873 52.8977L22.5271 54.9943V55.0625H26.5839V56H21.0782ZM31.0711 56.1193C30.5711 56.1193 30.1208 56.0199 29.7203 55.821C29.3197 55.6222 28.9987 55.3494 28.7572 55.0028C28.5157 54.6562 28.3836 54.2614 28.3609 53.8182H29.3836C29.4234 54.2131 29.6024 54.5398 29.9205 54.7983C30.2416 55.054 30.6251 55.1818 31.0711 55.1818C31.4291 55.1818 31.7472 55.098 32.0257 54.9304C32.3069 54.7628 32.5271 54.5327 32.6862 54.2401C32.8481 53.9446 32.9291 53.6108 32.9291 53.2386C32.9291 52.858 32.8453 52.5185 32.6776 52.2202C32.5129 51.919 32.2856 51.6818 31.9958 51.5085C31.7061 51.3352 31.3751 51.2472 31.0029 51.2443C30.7359 51.2415 30.4617 51.2827 30.1805 51.3679C29.8992 51.4503 29.6677 51.5568 29.4859 51.6875L28.4972 51.5682L29.0257 47.2727H33.5597V48.2102H29.912L29.6052 50.7841H29.6563C29.8353 50.642 30.0597 50.5241 30.3296 50.4304C30.5995 50.3366 30.8808 50.2898 31.1734 50.2898C31.7075 50.2898 32.1833 50.4176 32.6009 50.6733C33.0214 50.9261 33.3509 51.2727 33.5896 51.7131C33.8311 52.1534 33.9518 52.6562 33.9518 53.2216C33.9518 53.7784 33.8268 54.2756 33.5768 54.7131C33.3296 55.1477 32.9887 55.4915 32.5541 55.7443C32.1194 55.9943 31.6251 56.1193 31.0711 56.1193ZM41.8662 56.1193C41.2242 56.1193 40.6773 55.9446 40.2256 55.5952C39.7739 55.2429 39.4287 54.733 39.1901 54.0653C38.9514 53.3949 38.8321 52.5852 38.8321 51.6364C38.8321 50.6932 38.9514 49.8878 39.1901 49.2202C39.4316 48.5497 39.7781 48.0384 40.2298 47.6861C40.6844 47.331 41.2298 47.1534 41.8662 47.1534C42.5026 47.1534 43.0466 47.331 43.4983 47.6861C43.9529 48.0384 44.2994 48.5497 44.5381 49.2202C44.7796 49.8878 44.9003 50.6932 44.9003 51.6364C44.9003 52.5852 44.781 53.3949 44.5423 54.0653C44.3037 54.733 43.9585 55.2429 43.5068 55.5952C43.0551 55.9446 42.5083 56.1193 41.8662 56.1193ZM41.8662 55.1818C42.5026 55.1818 42.9969 54.875 43.3492 54.2614C43.7014 53.6477 43.8776 52.7727 43.8776 51.6364C43.8776 50.8807 43.7966 50.2372 43.6347 49.706C43.4756 49.1747 43.2455 48.7699 42.9443 48.4915C42.646 48.2131 42.2867 48.0739 41.8662 48.0739C41.2355 48.0739 40.7426 48.3849 40.3875 49.0071C40.0324 49.6264 39.8548 50.5028 39.8548 51.6364C39.8548 52.392 39.9344 53.0341 40.0935 53.5625C40.2526 54.0909 40.4813 54.4929 40.7796 54.7685C41.0807 55.044 41.4429 55.1818 41.8662 55.1818ZM49.3662 56.1193C48.7242 56.1193 48.1773 55.9446 47.7256 55.5952C47.2739 55.2429 46.9287 54.733 46.6901 54.0653C46.4514 53.3949 46.3321 52.5852 46.3321 51.6364C46.3321 50.6932 46.4514 49.8878 46.6901 49.2202C46.9316 48.5497 47.2781 48.0384 47.7298 47.6861C48.1844 47.331 48.7298 47.1534 49.3662 47.1534C50.0026 47.1534 50.5466 47.331 50.9983 47.6861C51.4529 48.0384 51.7994 48.5497 52.0381 49.2202C52.2796 49.8878 52.4003 50.6932 52.4003 51.6364C52.4003 52.5852 52.281 53.3949 52.0423 54.0653C51.8037 54.733 51.4585 55.2429 51.0068 55.5952C50.5551 55.9446 50.0083 56.1193 49.3662 56.1193ZM49.3662 55.1818C50.0026 55.1818 50.4969 54.875 50.8492 54.2614C51.2014 53.6477 51.3776 52.7727 51.3776 51.6364C51.3776 50.8807 51.2966 50.2372 51.1347 49.706C50.9756 49.1747 50.7455 48.7699 50.4443 48.4915C50.146 48.2131 49.7867 48.0739 49.3662 48.0739C48.7355 48.0739 48.2426 48.3849 47.8875 49.0071C47.5324 49.6264 47.3548 50.5028 47.3548 51.6364C47.3548 52.392 47.4344 53.0341 47.5935 53.5625C47.7526 54.0909 47.9813 54.4929 48.2796 54.7685C48.5807 55.044 48.9429 55.1818 49.3662 55.1818ZM56.8662 56.1193C56.2242 56.1193 55.6773 55.9446 55.2256 55.5952C54.7739 55.2429 54.4287 54.733 54.1901 54.0653C53.9514 53.3949 53.8321 52.5852 53.8321 51.6364C53.8321 50.6932 53.9514 49.8878 54.1901 49.2202C54.4316 48.5497 54.7781 48.0384 55.2298 47.6861C55.6844 47.331 56.2298 47.1534 56.8662 47.1534C57.5026 47.1534 58.0466 47.331 58.4983 47.6861C58.9529 48.0384 59.2994 48.5497 59.5381 49.2202C59.7796 49.8878 59.9003 50.6932 59.9003 51.6364C59.9003 52.5852 59.781 53.3949 59.5423 54.0653C59.3037 54.733 58.9585 55.2429 58.5068 55.5952C58.0551 55.9446 57.5083 56.1193 56.8662 56.1193ZM56.8662 55.1818C57.5026 55.1818 57.9969 54.875 58.3492 54.2614C58.7014 53.6477 58.8776 52.7727 58.8776 51.6364C58.8776 50.8807 58.7966 50.2372 58.6347 49.706C58.4756 49.1747 58.2455 48.7699 57.9443 48.4915C57.646 48.2131 57.2867 48.0739 56.8662 48.0739C56.2355 48.0739 55.7426 48.3849 55.3875 49.0071C55.0324 49.6264 54.8548 50.5028 54.8548 51.6364C54.8548 52.392 54.9344 53.0341 55.0935 53.5625C55.2526 54.0909 55.4813 54.4929 55.7796 54.7685C56.0807 55.044 56.4429 55.1818 56.8662 55.1818Z" fill="#494953"/>
<path d="M24.8339 136.273V145H23.7771V137.381H23.7259L21.5953 138.795V137.722L23.7771 136.273H24.8339ZM30.0711 145.119C29.5711 145.119 29.1208 145.02 28.7203 144.821C28.3197 144.622 27.9987 144.349 27.7572 144.003C27.5157 143.656 27.3836 143.261 27.3609 142.818H28.3836C28.4234 143.213 28.6024 143.54 28.9205 143.798C29.2416 144.054 29.6251 144.182 30.0711 144.182C30.4291 144.182 30.7472 144.098 31.0257 143.93C31.3069 143.763 31.5271 143.533 31.6862 143.24C31.8481 142.945 31.9291 142.611 31.9291 142.239C31.9291 141.858 31.8453 141.518 31.6776 141.22C31.5129 140.919 31.2856 140.682 30.9958 140.509C30.7061 140.335 30.3751 140.247 30.0029 140.244C29.7359 140.241 29.4617 140.283 29.1805 140.368C28.8992 140.45 28.6677 140.557 28.4859 140.688L27.4972 140.568L28.0257 136.273H32.5597V137.21H28.912L28.6052 139.784H28.6563C28.8353 139.642 29.0597 139.524 29.3296 139.43C29.5995 139.337 29.8808 139.29 30.1734 139.29C30.7075 139.29 31.1833 139.418 31.6009 139.673C32.0214 139.926 32.3509 140.273 32.5896 140.713C32.8311 141.153 32.9518 141.656 32.9518 142.222C32.9518 142.778 32.8268 143.276 32.5768 143.713C32.3296 144.148 31.9887 144.491 31.5541 144.744C31.1194 144.994 30.6251 145.119 30.0711 145.119ZM40.8662 145.119C40.2242 145.119 39.6773 144.945 39.2256 144.595C38.7739 144.243 38.4287 143.733 38.1901 143.065C37.9514 142.395 37.8321 141.585 37.8321 140.636C37.8321 139.693 37.9514 138.888 38.1901 138.22C38.4316 137.55 38.7781 137.038 39.2298 136.686C39.6844 136.331 40.2298 136.153 40.8662 136.153C41.5026 136.153 42.0466 136.331 42.4983 136.686C42.9529 137.038 43.2994 137.55 43.5381 138.22C43.7796 138.888 43.9003 139.693 43.9003 140.636C43.9003 141.585 43.781 142.395 43.5423 143.065C43.3037 143.733 42.9585 144.243 42.5068 144.595C42.0551 144.945 41.5083 145.119 40.8662 145.119ZM40.8662 144.182C41.5026 144.182 41.9969 143.875 42.3492 143.261C42.7014 142.648 42.8776 141.773 42.8776 140.636C42.8776 139.881 42.7966 139.237 42.6347 138.706C42.4756 138.175 42.2455 137.77 41.9443 137.491C41.646 137.213 41.2867 137.074 40.8662 137.074C40.2355 137.074 39.7426 137.385 39.3875 138.007C39.0324 138.626 38.8548 139.503 38.8548 140.636C38.8548 141.392 38.9344 142.034 39.0935 142.562C39.2526 143.091 39.4813 143.493 39.7796 143.768C40.0807 144.044 40.4429 144.182 40.8662 144.182ZM48.3662 145.119C47.7242 145.119 47.1773 144.945 46.7256 144.595C46.2739 144.243 45.9287 143.733 45.6901 143.065C45.4514 142.395 45.3321 141.585 45.3321 140.636C45.3321 139.693 45.4514 138.888 45.6901 138.22C45.9316 137.55 46.2781 137.038 46.7298 136.686C47.1844 136.331 47.7298 136.153 48.3662 136.153C49.0026 136.153 49.5466 136.331 49.9983 136.686C50.4529 137.038 50.7994 137.55 51.0381 138.22C51.2796 138.888 51.4003 139.693 51.4003 140.636C51.4003 141.585 51.281 142.395 51.0423 143.065C50.8037 143.733 50.4585 144.243 50.0068 144.595C49.5551 144.945 49.0083 145.119 48.3662 145.119ZM48.3662 144.182C49.0026 144.182 49.4969 143.875 49.8492 143.261C50.2014 142.648 50.3776 141.773 50.3776 140.636C50.3776 139.881 50.2966 139.237 50.1347 138.706C49.9756 138.175 49.7455 137.77 49.4443 137.491C49.146 137.213 48.7867 137.074 48.3662 137.074C47.7355 137.074 47.2426 137.385 46.8875 138.007C46.5324 138.626 46.3548 139.503 46.3548 140.636C46.3548 141.392 46.4344 142.034 46.5935 142.562C46.7526 143.091 46.9813 143.493 47.2796 143.768C47.5807 144.044 47.9429 144.182 48.3662 144.182ZM55.8662 145.119C55.2242 145.119 54.6773 144.945 54.2256 144.595C53.7739 144.243 53.4287 143.733 53.1901 143.065C52.9514 142.395 52.8321 141.585 52.8321 140.636C52.8321 139.693 52.9514 138.888 53.1901 138.22C53.4316 137.55 53.7781 137.038 54.2298 136.686C54.6844 136.331 55.2298 136.153 55.8662 136.153C56.5026 136.153 57.0466 136.331 57.4983 136.686C57.9529 137.038 58.2994 137.55 58.5381 138.22C58.7796 138.888 58.9003 139.693 58.9003 140.636C58.9003 141.585 58.781 142.395 58.5423 143.065C58.3037 143.733 57.9585 144.243 57.5068 144.595C57.0551 144.945 56.5083 145.119 55.8662 145.119ZM55.8662 144.182C56.5026 144.182 56.9969 143.875 57.3492 143.261C57.7014 142.648 57.8776 141.773 57.8776 140.636C57.8776 139.881 57.7966 139.237 57.6347 138.706C57.4756 138.175 57.2455 137.77 56.9443 137.491C56.646 137.213 56.2867 137.074 55.8662 137.074C55.2355 137.074 54.7426 137.385 54.3875 138.007C54.0324 138.626 53.8548 139.503 53.8548 140.636C53.8548 141.392 53.9344 142.034 54.0935 142.562C54.2526 143.091 54.4813 143.493 54.7796 143.768C55.0807 144.044 55.4429 144.182 55.8662 144.182Z" fill="#494953"/>
<path d="M18.6347 183.273V192H17.5779V184.381H17.5267L15.396 185.795V184.722L17.5779 183.273H18.6347ZM23.9912 192.119C23.3492 192.119 22.8023 191.945 22.3506 191.595C21.8989 191.243 21.5537 190.733 21.3151 190.065C21.0764 189.395 20.9571 188.585 20.9571 187.636C20.9571 186.693 21.0764 185.888 21.3151 185.22C21.5566 184.55 21.9031 184.038 22.3548 183.686C22.8094 183.331 23.3548 183.153 23.9912 183.153C24.6276 183.153 25.1716 183.331 25.6233 183.686C26.0779 184.038 26.4244 184.55 26.6631 185.22C26.9046 185.888 27.0253 186.693 27.0253 187.636C27.0253 188.585 26.906 189.395 26.6673 190.065C26.4287 190.733 26.0835 191.243 25.6318 191.595C25.1801 191.945 24.6333 192.119 23.9912 192.119ZM23.9912 191.182C24.6276 191.182 25.1219 190.875 25.4742 190.261C25.8264 189.648 26.0026 188.773 26.0026 187.636C26.0026 186.881 25.9216 186.237 25.7597 185.706C25.6006 185.175 25.3705 184.77 25.0693 184.491C24.771 184.213 24.4117 184.074 23.9912 184.074C23.3605 184.074 22.8676 184.385 22.5125 185.007C22.1574 185.626 21.9798 186.503 21.9798 187.636C21.9798 188.392 22.0594 189.034 22.2185 189.562C22.3776 190.091 22.6063 190.493 22.9046 190.768C23.2057 191.044 23.5679 191.182 23.9912 191.182ZM34.8662 192.119C34.2242 192.119 33.6773 191.945 33.2256 191.595C32.7739 191.243 32.4287 190.733 32.1901 190.065C31.9514 189.395 31.8321 188.585 31.8321 187.636C31.8321 186.693 31.9514 185.888 32.1901 185.22C32.4316 184.55 32.7781 184.038 33.2298 183.686C33.6844 183.331 34.2298 183.153 34.8662 183.153C35.5026 183.153 36.0466 183.331 36.4983 183.686C36.9529 184.038 37.2994 184.55 37.5381 185.22C37.7796 185.888 37.9003 186.693 37.9003 187.636C37.9003 188.585 37.781 189.395 37.5423 190.065C37.3037 190.733 36.9585 191.243 36.5068 191.595C36.0551 191.945 35.5083 192.119 34.8662 192.119ZM34.8662 191.182C35.5026 191.182 35.9969 190.875 36.3492 190.261C36.7014 189.648 36.8776 188.773 36.8776 187.636C36.8776 186.881 36.7966 186.237 36.6347 185.706C36.4756 185.175 36.2455 184.77 35.9443 184.491C35.646 184.213 35.2867 184.074 34.8662 184.074C34.2355 184.074 33.7426 184.385 33.3875 185.007C33.0324 185.626 32.8548 186.503 32.8548 187.636C32.8548 188.392 32.9344 189.034 33.0935 189.562C33.2526 190.091 33.4813 190.493 33.7796 190.768C34.0807 191.044 34.4429 191.182 34.8662 191.182ZM42.3662 192.119C41.7242 192.119 41.1773 191.945 40.7256 191.595C40.2739 191.243 39.9287 190.733 39.6901 190.065C39.4514 189.395 39.3321 188.585 39.3321 187.636C39.3321 186.693 39.4514 185.888 39.6901 185.22C39.9316 184.55 40.2781 184.038 40.7298 183.686C41.1844 183.331 41.7298 183.153 42.3662 183.153C43.0026 183.153 43.5466 183.331 43.9983 183.686C44.4529 184.038 44.7994 184.55 45.0381 185.22C45.2796 185.888 45.4003 186.693 45.4003 187.636C45.4003 188.585 45.281 189.395 45.0423 190.065C44.8037 190.733 44.4585 191.243 44.0068 191.595C43.5551 191.945 43.0083 192.119 42.3662 192.119ZM42.3662 191.182C43.0026 191.182 43.4969 190.875 43.8492 190.261C44.2014 189.648 44.3776 188.773 44.3776 187.636C44.3776 186.881 44.2966 186.237 44.1347 185.706C43.9756 185.175 43.7455 184.77 43.4443 184.491C43.146 184.213 42.7867 184.074 42.3662 184.074C41.7355 184.074 41.2426 184.385 40.8875 185.007C40.5324 185.626 40.3548 186.503 40.3548 187.636C40.3548 188.392 40.4344 189.034 40.5935 189.562C40.7526 190.091 40.9813 190.493 41.2796 190.768C41.5807 191.044 41.9429 191.182 42.3662 191.182ZM49.8662 192.119C49.2242 192.119 48.6773 191.945 48.2256 191.595C47.7739 191.243 47.4287 190.733 47.1901 190.065C46.9514 189.395 46.8321 188.585 46.8321 187.636C46.8321 186.693 46.9514 185.888 47.1901 185.22C47.4316 184.55 47.7781 184.038 48.2298 183.686C48.6844 183.331 49.2298 183.153 49.8662 183.153C50.5026 183.153 51.0466 183.331 51.4983 183.686C51.9529 184.038 52.2994 184.55 52.5381 185.22C52.7796 185.888 52.9003 186.693 52.9003 187.636C52.9003 188.585 52.781 189.395 52.5423 190.065C52.3037 190.733 51.9585 191.243 51.5068 191.595C51.0551 191.945 50.5083 192.119 49.8662 192.119ZM49.8662 191.182C50.5026 191.182 50.9969 190.875 51.3492 190.261C51.7014 189.648 51.8776 188.773 51.8776 187.636C51.8776 186.881 51.7966 186.237 51.6347 185.706C51.4756 185.175 51.2455 184.77 50.9443 184.491C50.646 184.213 50.2867 184.074 49.8662 184.074C49.2355 184.074 48.7426 184.385 48.3875 185.007C48.0324 185.626 47.8548 186.503 47.8548 187.636C47.8548 188.392 47.9344 189.034 48.0935 189.562C48.2526 190.091 48.4813 190.493 48.7796 190.768C49.0807 191.044 49.4429 191.182 49.8662 191.182Z" fill="#494953"/>
<path d="M24.0711 239.119C23.5711 239.119 23.1208 239.02 22.7203 238.821C22.3197 238.622 21.9987 238.349 21.7572 238.003C21.5157 237.656 21.3836 237.261 21.3609 236.818H22.3836C22.4234 237.213 22.6024 237.54 22.9205 237.798C23.2416 238.054 23.6251 238.182 24.0711 238.182C24.4291 238.182 24.7472 238.098 25.0257 237.93C25.3069 237.763 25.5271 237.533 25.6862 237.24C25.8481 236.945 25.9291 236.611 25.9291 236.239C25.9291 235.858 25.8453 235.518 25.6776 235.22C25.5129 234.919 25.2856 234.682 24.9958 234.509C24.7061 234.335 24.3751 234.247 24.0029 234.244C23.7359 234.241 23.4617 234.283 23.1805 234.368C22.8992 234.45 22.6677 234.557 22.4859 234.688L21.4972 234.568L22.0257 230.273H26.5597V231.21H22.912L22.6052 233.784H22.6563C22.8353 233.642 23.0597 233.524 23.3296 233.43C23.5995 233.337 23.8808 233.29 24.1734 233.29C24.7075 233.29 25.1833 233.418 25.6009 233.673C26.0214 233.926 26.3509 234.273 26.5896 234.713C26.8311 235.153 26.9518 235.656 26.9518 236.222C26.9518 236.778 26.8268 237.276 26.5768 237.713C26.3296 238.148 25.9887 238.491 25.5541 238.744C25.1194 238.994 24.6251 239.119 24.0711 239.119ZM34.8662 239.119C34.2242 239.119 33.6773 238.945 33.2256 238.595C32.7739 238.243 32.4287 237.733 32.1901 237.065C31.9514 236.395 31.8321 235.585 31.8321 234.636C31.8321 233.693 31.9514 232.888 32.1901 232.22C32.4316 231.55 32.7781 231.038 33.2298 230.686C33.6844 230.331 34.2298 230.153 34.8662 230.153C35.5026 230.153 36.0466 230.331 36.4983 230.686C36.9529 231.038 37.2994 231.55 37.5381 232.22C37.7796 232.888 37.9003 233.693 37.9003 234.636C37.9003 235.585 37.781 236.395 37.5423 237.065C37.3037 237.733 36.9585 238.243 36.5068 238.595C36.0551 238.945 35.5083 239.119 34.8662 239.119ZM34.8662 238.182C35.5026 238.182 35.9969 237.875 36.3492 237.261C36.7014 236.648 36.8776 235.773 36.8776 234.636C36.8776 233.881 36.7966 233.237 36.6347 232.706C36.4756 232.175 36.2455 231.77 35.9443 231.491C35.646 231.213 35.2867 231.074 34.8662 231.074C34.2355 231.074 33.7426 231.385 33.3875 232.007C33.0324 232.626 32.8548 233.503 32.8548 234.636C32.8548 235.392 32.9344 236.034 33.0935 236.562C33.2526 237.091 33.4813 237.493 33.7796 237.768C34.0807 238.044 34.4429 238.182 34.8662 238.182ZM42.3662 239.119C41.7242 239.119 41.1773 238.945 40.7256 238.595C40.2739 238.243 39.9287 237.733 39.6901 237.065C39.4514 236.395 39.3321 235.585 39.3321 234.636C39.3321 233.693 39.4514 232.888 39.6901 232.22C39.9316 231.55 40.2781 231.038 40.7298 230.686C41.1844 230.331 41.7298 230.153 42.3662 230.153C43.0026 230.153 43.5466 230.331 43.9983 230.686C44.4529 231.038 44.7994 231.55 45.0381 232.22C45.2796 232.888 45.4003 233.693 45.4003 234.636C45.4003 235.585 45.281 236.395 45.0423 237.065C44.8037 237.733 44.4585 238.243 44.0068 238.595C43.5551 238.945 43.0083 239.119 42.3662 239.119ZM42.3662 238.182C43.0026 238.182 43.4969 237.875 43.8492 237.261C44.2014 236.648 44.3776 235.773 44.3776 234.636C44.3776 233.881 44.2966 233.237 44.1347 232.706C43.9756 232.175 43.7455 231.77 43.4443 231.491C43.146 231.213 42.7867 231.074 42.3662 231.074C41.7355 231.074 41.2426 231.385 40.8875 232.007C40.5324 232.626 40.3548 233.503 40.3548 234.636C40.3548 235.392 40.4344 236.034 40.5935 236.562C40.7526 237.091 40.9813 237.493 41.2796 237.768C41.5807 238.044 41.9429 238.182 42.3662 238.182ZM49.8662 239.119C49.2242 239.119 48.6773 238.945 48.2256 238.595C47.7739 238.243 47.4287 237.733 47.1901 237.065C46.9514 236.395 46.8321 235.585 46.8321 234.636C46.8321 233.693 46.9514 232.888 47.1901 232.22C47.4316 231.55 47.7781 231.038 48.2298 230.686C48.6844 230.331 49.2298 230.153 49.8662 230.153C50.5026 230.153 51.0466 230.331 51.4983 230.686C51.9529 231.038 52.2994 231.55 52.5381 232.22C52.7796 232.888 52.9003 233.693 52.9003 234.636C52.9003 235.585 52.781 236.395 52.5423 237.065C52.3037 237.733 51.9585 238.243 51.5068 238.595C51.0551 238.945 50.5083 239.119 49.8662 239.119ZM49.8662 238.182C50.5026 238.182 50.9969 237.875 51.3492 237.261C51.7014 236.648 51.8776 235.773 51.8776 234.636C51.8776 233.881 51.7966 233.237 51.6347 232.706C51.4756 232.175 51.2455 231.77 50.9443 231.491C50.646 231.213 50.2867 231.074 49.8662 231.074C49.2355 231.074 48.7426 231.385 48.3875 232.007C48.0324 232.626 47.8548 233.503 47.8548 234.636C47.8548 235.392 47.9344 236.034 48.0935 236.562C48.2526 237.091 48.4813 237.493 48.7796 237.768C49.0807 238.044 49.4429 238.182 49.8662 238.182Z" fill="#494953"/>
<path d="M38.8662 283.119C38.2242 283.119 37.6773 282.945 37.2256 282.595C36.7739 282.243 36.4287 281.733 36.1901 281.065C35.9514 280.395 35.8321 279.585 35.8321 278.636C35.8321 277.693 35.9514 276.888 36.1901 276.22C36.4316 275.55 36.7781 275.038 37.2298 274.686C37.6844 274.331 38.2298 274.153 38.8662 274.153C39.5026 274.153 40.0466 274.331 40.4983 274.686C40.9529 275.038 41.2994 275.55 41.5381 276.22C41.7796 276.888 41.9003 277.693 41.9003 278.636C41.9003 279.585 41.781 280.395 41.5423 281.065C41.3037 281.733 40.9585 282.243 40.5068 282.595C40.0551 282.945 39.5083 283.119 38.8662 283.119ZM38.8662 282.182C39.5026 282.182 39.9969 281.875 40.3492 281.261C40.7014 280.648 40.8776 279.773 40.8776 278.636C40.8776 277.881 40.7966 277.237 40.6347 276.706C40.4756 276.175 40.2455 275.77 39.9443 275.491C39.646 275.213 39.2867 275.074 38.8662 275.074C38.2355 275.074 37.7426 275.385 37.3875 276.007C37.0324 276.626 36.8548 277.503 36.8548 278.636C36.8548 279.392 36.9344 280.034 37.0935 280.562C37.2526 281.091 37.4813 281.493 37.7796 281.768C38.0807 282.044 38.4429 282.182 38.8662 282.182Z" fill="#494953"/>
<rect x="72" y="50" width="874" height="1" fill="black" fill-opacity="0.12"/>
<rect x="72" y="96" width="874" height="1" fill="black" fill-opacity="0.12"/>
<rect x="72" y="142" width="874" height="1" fill="black" fill-opacity="0.12"/>
<rect x="72" y="188" width="874" height="1" fill="black" fill-opacity="0.12"/>
<rect x="72" y="234" width="874" height="1" fill="black" fill-opacity="0.12"/>
<rect x="72" y="280" width="874" height="2" fill="black" fill-opacity="0.12"/>
<path opacity="0.8" d="M81.0879 295.691C81.0879 296.211 80.9668 296.652 80.7246 297.016C80.4863 297.375 80.1621 297.648 79.752 297.836C79.3457 298.023 78.8867 298.117 78.375 298.117C77.8633 298.117 77.4023 298.023 76.9922 297.836C76.582 297.648 76.2578 297.375 76.0195 297.016C75.7812 296.652 75.6621 296.211 75.6621 295.691C75.6621 295.352 75.7266 295.041 75.8555 294.76C75.9883 294.475 76.1738 294.227 76.4121 294.016C76.6543 293.805 76.9395 293.643 77.2676 293.529C77.5996 293.412 77.9648 293.354 78.3633 293.354C78.8867 293.354 79.3535 293.455 79.7637 293.658C80.1738 293.857 80.4961 294.133 80.7305 294.484C80.9688 294.836 81.0879 295.238 81.0879 295.691ZM79.998 295.668C79.998 295.352 79.9297 295.072 79.793 294.83C79.6562 294.584 79.4648 294.393 79.2188 294.256C78.9727 294.119 78.6875 294.051 78.3633 294.051C78.0312 294.051 77.7441 294.119 77.502 294.256C77.2637 294.393 77.0781 294.584 76.9453 294.83C76.8125 295.072 76.7461 295.352 76.7461 295.668C76.7461 295.996 76.8105 296.277 76.9395 296.512C77.0723 296.742 77.2598 296.92 77.502 297.045C77.748 297.166 78.0391 297.227 78.375 297.227C78.7109 297.227 79 297.166 79.2422 297.045C79.4844 296.92 79.6699 296.742 79.7988 296.512C79.9316 296.277 79.998 295.996 79.998 295.668ZM80.8887 291.689C80.8887 292.104 80.7793 292.477 80.5605 292.809C80.3418 293.141 80.043 293.402 79.6641 293.594C79.2852 293.785 78.8555 293.881 78.375 293.881C77.8867 293.881 77.4512 293.785 77.0684 293.594C76.6895 293.402 76.3926 293.141 76.1777 292.809C75.9629 292.477 75.8555 292.104 75.8555 291.689C75.8555 291.193 75.9629 290.771 76.1777 290.424C76.3965 290.076 76.6953 289.811 77.0742 289.627C77.4531 289.443 77.8848 289.352 78.3691 289.352C78.8574 289.352 79.291 289.443 79.6699 289.627C80.0488 289.811 80.3457 290.076 80.5605 290.424C80.7793 290.771 80.8887 291.193 80.8887 291.689ZM79.8047 291.707C79.8047 291.422 79.7441 291.17 79.623 290.951C79.502 290.732 79.334 290.561 79.1191 290.436C78.9043 290.307 78.6543 290.242 78.3691 290.242C78.084 290.242 77.834 290.303 77.6191 290.424C77.4082 290.541 77.2422 290.709 77.1211 290.928C77.0039 291.146 76.9453 291.406 76.9453 291.707C76.9453 292 77.0039 292.256 77.1211 292.475C77.2422 292.693 77.4102 292.863 77.625 292.984C77.8398 293.105 78.0898 293.166 78.375 293.166C78.6602 293.166 78.9082 293.105 79.1191 292.984C79.334 292.863 79.502 292.693 79.623 292.475C79.7441 292.256 79.8047 292 79.8047 291.707ZM86.0484 290.225L83.2242 298H82.0699L85.3219 289.469H86.066L86.0484 290.225ZM88.4156 298L85.5855 290.225L85.568 289.469H86.3121L89.5758 298H88.4156ZM88.2691 294.842V295.768H83.4762V294.842H88.2691ZM91.2258 289.469H92.3215L95.1164 296.424L97.9055 289.469H99.007L95.5383 298H94.6828L91.2258 289.469ZM90.8684 289.469H91.8352L91.9934 294.672V298H90.8684V289.469ZM98.3918 289.469H99.3586V298H98.2336V294.672L98.3918 289.469Z" fill="black" fill-opacity="0.6"/>
<path d="M152.333 297.092H152.444C153.069 297.092 153.577 297.004 153.968 296.828C154.358 296.652 154.659 296.416 154.87 296.119C155.081 295.822 155.226 295.488 155.304 295.117C155.382 294.742 155.421 294.357 155.421 293.963V292.656C155.421 292.27 155.376 291.926 155.286 291.625C155.2 291.324 155.079 291.072 154.923 290.869C154.771 290.666 154.597 290.512 154.401 290.406C154.206 290.301 153.999 290.248 153.78 290.248C153.53 290.248 153.306 290.299 153.106 290.4C152.911 290.498 152.745 290.637 152.608 290.816C152.476 290.996 152.374 291.207 152.304 291.449C152.233 291.691 152.198 291.955 152.198 292.24C152.198 292.494 152.229 292.74 152.292 292.979C152.354 293.217 152.45 293.432 152.579 293.623C152.708 293.814 152.868 293.967 153.06 294.08C153.255 294.189 153.483 294.244 153.745 294.244C153.987 294.244 154.214 294.197 154.425 294.104C154.64 294.006 154.829 293.875 154.993 293.711C155.161 293.543 155.294 293.354 155.392 293.143C155.493 292.932 155.552 292.711 155.567 292.48H156.083C156.083 292.805 156.019 293.125 155.89 293.441C155.765 293.754 155.589 294.039 155.362 294.297C155.136 294.555 154.87 294.762 154.565 294.918C154.261 295.07 153.929 295.146 153.569 295.146C153.147 295.146 152.782 295.064 152.474 294.9C152.165 294.736 151.911 294.518 151.712 294.244C151.517 293.971 151.37 293.666 151.272 293.33C151.179 292.99 151.132 292.646 151.132 292.299C151.132 291.893 151.188 291.512 151.302 291.156C151.415 290.801 151.583 290.488 151.806 290.219C152.028 289.945 152.304 289.732 152.632 289.58C152.964 289.428 153.347 289.352 153.78 289.352C154.269 289.352 154.685 289.449 155.028 289.645C155.372 289.84 155.651 290.102 155.866 290.43C156.085 290.758 156.245 291.127 156.347 291.537C156.448 291.947 156.499 292.369 156.499 292.803V293.195C156.499 293.637 156.47 294.086 156.411 294.543C156.356 294.996 156.249 295.43 156.089 295.844C155.933 296.258 155.704 296.629 155.403 296.957C155.103 297.281 154.71 297.539 154.226 297.73C153.745 297.918 153.151 298.012 152.444 298.012H152.333V297.092ZM161.594 290.225L158.77 298H157.616L160.868 289.469H161.612L161.594 290.225ZM163.962 298L161.131 290.225L161.114 289.469H161.858L165.122 298H163.962ZM163.815 294.842V295.768H159.022V294.842H163.815ZM166.772 289.469H167.867L170.662 296.424L173.451 289.469H174.553L171.084 298H170.229L166.772 289.469ZM166.414 289.469H167.381L167.539 294.672V298H166.414V289.469ZM173.938 289.469H174.904V298H173.779V294.672L173.938 289.469Z" fill="black" fill-opacity="0.6"/>
<g clip-path="url(#clip0_2087_22091)">
<path d="M227.271 289.422V298H226.188V290.775L224.002 291.572V290.594L227.102 289.422H227.271ZM235.964 293.055V294.355C235.964 295.055 235.902 295.645 235.777 296.125C235.652 296.605 235.472 296.992 235.238 297.285C235.004 297.578 234.72 297.791 234.388 297.924C234.06 298.053 233.689 298.117 233.275 298.117C232.947 298.117 232.644 298.076 232.367 297.994C232.089 297.912 231.839 297.781 231.617 297.602C231.398 297.418 231.211 297.18 231.054 296.887C230.898 296.594 230.779 296.238 230.697 295.82C230.615 295.402 230.574 294.914 230.574 294.355V293.055C230.574 292.355 230.636 291.77 230.761 291.297C230.89 290.824 231.072 290.445 231.306 290.16C231.541 289.871 231.822 289.664 232.15 289.539C232.482 289.414 232.853 289.352 233.263 289.352C233.595 289.352 233.9 289.393 234.177 289.475C234.459 289.553 234.709 289.68 234.927 289.855C235.146 290.027 235.332 290.258 235.484 290.547C235.64 290.832 235.759 291.182 235.841 291.596C235.923 292.01 235.964 292.496 235.964 293.055ZM234.875 294.531V292.873C234.875 292.49 234.851 292.154 234.804 291.865C234.761 291.572 234.697 291.322 234.611 291.115C234.525 290.908 234.416 290.74 234.283 290.611C234.154 290.482 234.004 290.389 233.832 290.33C233.664 290.268 233.474 290.236 233.263 290.236C233.005 290.236 232.777 290.285 232.578 290.383C232.379 290.477 232.211 290.627 232.074 290.834C231.941 291.041 231.839 291.312 231.769 291.648C231.699 291.984 231.664 292.393 231.664 292.873V294.531C231.664 294.914 231.685 295.252 231.728 295.545C231.775 295.838 231.843 296.092 231.933 296.307C232.023 296.518 232.132 296.691 232.261 296.828C232.39 296.965 232.539 297.066 232.707 297.133C232.879 297.195 233.068 297.227 233.275 297.227C233.541 297.227 233.773 297.176 233.972 297.074C234.171 296.973 234.338 296.814 234.47 296.6C234.607 296.381 234.709 296.102 234.775 295.762C234.841 295.418 234.875 295.008 234.875 294.531ZM240.948 290.225L238.124 298H236.97L240.222 289.469H240.966L240.948 290.225ZM243.316 298L240.486 290.225L240.468 289.469H241.212L244.476 298H243.316ZM243.169 294.842V295.768H238.376V294.842H243.169ZM246.126 289.469H247.221L250.016 296.424L252.805 289.469H253.907L250.438 298H249.583L246.126 289.469ZM245.768 289.469H246.735L246.893 294.672V298H245.768V289.469ZM253.292 289.469H254.259V298H253.134V294.672L253.292 289.469Z" fill="black" fill-opacity="0.6"/>
</g>
<path d="M303.771 289.422V298H302.688V290.775L300.502 291.572V290.594L303.602 289.422H303.771ZM310.671 289.422V298H309.588V290.775L307.402 291.572V290.594L310.502 289.422H310.671ZM317.448 290.225L314.624 298H313.47L316.722 289.469H317.466L317.448 290.225ZM319.816 298L316.986 290.225L316.968 289.469H317.712L320.976 298H319.816ZM319.669 294.842V295.768H314.876V294.842H319.669ZM322.626 289.469H323.721L326.516 296.424L329.305 289.469H330.407L326.938 298H326.083L322.626 289.469ZM322.268 289.469H323.235L323.393 294.672V298H322.268V289.469ZM329.792 289.469H330.759V298H329.634V294.672L329.792 289.469Z" fill="black" fill-opacity="0.6"/>
<path d="M379.771 289.422V298H378.688V290.775L376.502 291.572V290.594L379.602 289.422H379.771ZM388.699 297.109V298H383.115V297.221L385.91 294.109C386.254 293.727 386.519 293.402 386.707 293.137C386.898 292.867 387.031 292.627 387.105 292.416C387.183 292.201 387.222 291.982 387.222 291.76C387.222 291.479 387.164 291.225 387.046 290.998C386.933 290.768 386.765 290.584 386.543 290.447C386.32 290.311 386.05 290.242 385.734 290.242C385.355 290.242 385.039 290.316 384.785 290.465C384.535 290.609 384.347 290.812 384.222 291.074C384.097 291.336 384.035 291.637 384.035 291.977H382.951C382.951 291.496 383.056 291.057 383.267 290.658C383.478 290.26 383.791 289.943 384.205 289.709C384.619 289.471 385.129 289.352 385.734 289.352C386.273 289.352 386.734 289.447 387.117 289.639C387.5 289.826 387.793 290.092 387.996 290.436C388.203 290.775 388.306 291.174 388.306 291.631C388.306 291.881 388.263 292.135 388.177 292.393C388.095 292.646 387.98 292.9 387.832 293.154C387.687 293.408 387.517 293.658 387.322 293.904C387.13 294.15 386.925 294.393 386.707 294.631L384.421 297.109H388.699ZM393.437 294.654H391.157V293.734H393.437C393.878 293.734 394.236 293.664 394.509 293.523C394.782 293.383 394.982 293.188 395.107 292.938C395.236 292.688 395.3 292.402 395.3 292.082C395.3 291.789 395.236 291.514 395.107 291.256C394.982 290.998 394.782 290.791 394.509 290.635C394.236 290.475 393.878 290.395 393.437 290.395H391.421V298H390.29V289.469H393.437C394.081 289.469 394.626 289.58 395.071 289.803C395.517 290.025 395.855 290.334 396.085 290.729C396.316 291.119 396.431 291.566 396.431 292.07C396.431 292.617 396.316 293.084 396.085 293.471C395.855 293.857 395.517 294.152 395.071 294.355C394.626 294.555 394.081 294.654 393.437 294.654ZM398.368 289.469H399.464L402.259 296.424L405.048 289.469H406.149L402.68 298H401.825L398.368 289.469ZM398.011 289.469H398.977L399.136 294.672V298H398.011V289.469ZM405.534 289.469H406.501V298H405.376V294.672L405.534 289.469Z" fill="black" fill-opacity="0.6"/>
<path d="M458.999 289.422V298H457.915V290.775L455.729 291.572V290.594L458.829 289.422H458.999ZM465.764 294.654H463.485V293.734H465.764C466.206 293.734 466.563 293.664 466.837 293.523C467.11 293.383 467.309 293.188 467.434 292.938C467.563 292.688 467.628 292.402 467.628 292.082C467.628 291.789 467.563 291.514 467.434 291.256C467.309 290.998 467.11 290.791 466.837 290.635C466.563 290.475 466.206 290.395 465.764 290.395H463.749V298H462.618V289.469H465.764C466.409 289.469 466.954 289.58 467.399 289.803C467.844 290.025 468.182 290.334 468.413 290.729C468.643 291.119 468.758 291.566 468.758 292.07C468.758 292.617 468.643 293.084 468.413 293.471C468.182 293.857 467.844 294.152 467.399 294.355C466.954 294.555 466.409 294.654 465.764 294.654ZM470.696 289.469H471.791L474.586 296.424L477.375 289.469H478.477L475.008 298H474.153L470.696 289.469ZM470.338 289.469H471.305L471.463 294.672V298H470.338V289.469ZM477.862 289.469H478.828V298H477.703V294.672L477.862 289.469Z" fill="black" fill-opacity="0.6"/>
<path d="M537.571 297.109V298H531.987V297.221L534.782 294.109C535.126 293.727 535.392 293.402 535.579 293.137C535.771 292.867 535.903 292.627 535.978 292.416C536.056 292.201 536.095 291.982 536.095 291.76C536.095 291.479 536.036 291.225 535.919 290.998C535.806 290.768 535.638 290.584 535.415 290.447C535.192 290.311 534.923 290.242 534.606 290.242C534.228 290.242 533.911 290.316 533.657 290.465C533.407 290.609 533.22 290.812 533.095 291.074C532.97 291.336 532.907 291.637 532.907 291.977H531.823C531.823 291.496 531.929 291.057 532.14 290.658C532.351 290.26 532.663 289.943 533.077 289.709C533.491 289.471 534.001 289.352 534.606 289.352C535.146 289.352 535.606 289.447 535.989 289.639C536.372 289.826 536.665 290.092 536.868 290.436C537.075 290.775 537.179 291.174 537.179 291.631C537.179 291.881 537.136 292.135 537.05 292.393C536.968 292.646 536.853 292.9 536.704 293.154C536.56 293.408 536.39 293.658 536.194 293.904C536.003 294.15 535.798 294.393 535.579 294.631L533.294 297.109H537.571ZM542.309 294.654H540.03V293.734H542.309C542.751 293.734 543.108 293.664 543.381 293.523C543.655 293.383 543.854 293.188 543.979 292.938C544.108 292.688 544.172 292.402 544.172 292.082C544.172 291.789 544.108 291.514 543.979 291.256C543.854 290.998 543.655 290.791 543.381 290.635C543.108 290.475 542.751 290.395 542.309 290.395H540.294V298H539.163V289.469H542.309C542.954 289.469 543.499 289.58 543.944 289.803C544.389 290.025 544.727 290.334 544.958 290.729C545.188 291.119 545.303 291.566 545.303 292.07C545.303 292.617 545.188 293.084 544.958 293.471C544.727 293.857 544.389 294.152 543.944 294.355C543.499 294.555 542.954 294.654 542.309 294.654ZM547.24 289.469H548.336L551.131 296.424L553.92 289.469H555.022L551.553 298H550.697L547.24 289.469ZM546.883 289.469H547.85L548.008 294.672V298H546.883V289.469ZM554.406 289.469H555.373V298H554.248V294.672L554.406 289.469Z" fill="black" fill-opacity="0.6"/>
<path d="M609.109 293.201H609.883C610.262 293.201 610.574 293.139 610.82 293.014C611.07 292.885 611.256 292.711 611.377 292.492C611.502 292.27 611.564 292.02 611.564 291.742C611.564 291.414 611.51 291.139 611.4 290.916C611.291 290.693 611.127 290.525 610.908 290.412C610.689 290.299 610.412 290.242 610.076 290.242C609.771 290.242 609.502 290.303 609.268 290.424C609.037 290.541 608.855 290.709 608.723 290.928C608.594 291.146 608.529 291.404 608.529 291.701H607.445C607.445 291.268 607.555 290.873 607.773 290.518C607.992 290.162 608.299 289.879 608.693 289.668C609.092 289.457 609.553 289.352 610.076 289.352C610.592 289.352 611.043 289.443 611.43 289.627C611.816 289.807 612.117 290.076 612.332 290.436C612.547 290.791 612.654 291.234 612.654 291.766C612.654 291.98 612.604 292.211 612.502 292.457C612.404 292.699 612.25 292.926 612.039 293.137C611.832 293.348 611.562 293.521 611.23 293.658C610.898 293.791 610.5 293.857 610.035 293.857H609.109V293.201ZM609.109 294.092V293.441H610.035C610.578 293.441 611.027 293.506 611.383 293.635C611.738 293.764 612.018 293.936 612.221 294.15C612.428 294.365 612.572 294.602 612.654 294.859C612.74 295.113 612.783 295.367 612.783 295.621C612.783 296.02 612.715 296.373 612.578 296.682C612.445 296.99 612.256 297.252 612.01 297.467C611.768 297.682 611.482 297.844 611.154 297.953C610.826 298.062 610.469 298.117 610.082 298.117C609.711 298.117 609.361 298.064 609.033 297.959C608.709 297.854 608.422 297.701 608.172 297.502C607.922 297.299 607.727 297.051 607.586 296.758C607.445 296.461 607.375 296.123 607.375 295.744H608.459C608.459 296.041 608.523 296.301 608.652 296.523C608.785 296.746 608.973 296.92 609.215 297.045C609.461 297.166 609.75 297.227 610.082 297.227C610.414 297.227 610.699 297.17 610.938 297.057C611.18 296.939 611.365 296.764 611.494 296.529C611.627 296.295 611.693 296 611.693 295.645C611.693 295.289 611.619 294.998 611.471 294.771C611.322 294.541 611.111 294.371 610.838 294.262C610.568 294.148 610.25 294.092 609.883 294.092H609.109ZM617.855 294.654H615.576V293.734H617.855C618.296 293.734 618.654 293.664 618.927 293.523C619.201 293.383 619.4 293.188 619.525 292.938C619.654 292.688 619.718 292.402 619.718 292.082C619.718 291.789 619.654 291.514 619.525 291.256C619.4 290.998 619.201 290.791 618.927 290.635C618.654 290.475 618.296 290.395 617.855 290.395H615.839V298H614.709V289.469H617.855C618.5 289.469 619.045 289.58 619.49 289.803C619.935 290.025 620.273 290.334 620.504 290.729C620.734 291.119 620.849 291.566 620.849 292.07C620.849 292.617 620.734 293.084 620.504 293.471C620.273 293.857 619.935 294.152 619.49 294.355C619.045 294.555 618.5 294.654 617.855 294.654ZM622.786 289.469H623.882L626.677 296.424L629.466 289.469H630.568L627.099 298H626.243L622.786 289.469ZM622.429 289.469H623.396L623.554 294.672V298H622.429V289.469ZM629.952 289.469H630.919V298H629.794V294.672L629.952 289.469Z" fill="black" fill-opacity="0.6"/>
<path d="M688.838 295.129V296.02H682.674V295.381L686.494 289.469H687.379L686.43 291.18L683.904 295.129H688.838ZM687.648 289.469V298H686.564V289.469H687.648ZM693.4 294.654H691.121V293.734H693.4C693.841 293.734 694.199 293.664 694.472 293.523C694.746 293.383 694.945 293.188 695.07 292.938C695.199 292.688 695.263 292.402 695.263 292.082C695.263 291.789 695.199 291.514 695.07 291.256C694.945 290.998 694.746 290.791 694.472 290.635C694.199 290.475 693.841 290.395 693.4 290.395H691.384V298H690.254V289.469H693.4C694.045 289.469 694.589 289.58 695.035 289.803C695.48 290.025 695.818 290.334 696.048 290.729C696.279 291.119 696.394 291.566 696.394 292.07C696.394 292.617 696.279 293.084 696.048 293.471C695.818 293.857 695.48 294.152 695.035 294.355C694.589 294.555 694.045 294.654 693.4 294.654ZM698.331 289.469H699.427L702.222 296.424L705.011 289.469H706.113L702.644 298H701.788L698.331 289.469ZM697.974 289.469H698.941L699.099 294.672V298H697.974V289.469ZM705.497 289.469H706.464V298H705.339V294.672L705.497 289.469Z" fill="black" fill-opacity="0.6"/>
<path d="M760.08 293.939L759.213 293.717L759.641 289.469H764.018V290.471H760.561L760.303 292.791C760.459 292.701 760.656 292.617 760.895 292.539C761.137 292.461 761.414 292.422 761.727 292.422C762.121 292.422 762.475 292.49 762.787 292.627C763.1 292.76 763.365 292.951 763.584 293.201C763.807 293.451 763.977 293.752 764.094 294.104C764.211 294.455 764.27 294.848 764.27 295.281C764.27 295.691 764.213 296.068 764.1 296.412C763.99 296.756 763.824 297.057 763.602 297.314C763.379 297.568 763.098 297.766 762.758 297.906C762.422 298.047 762.025 298.117 761.568 298.117C761.225 298.117 760.898 298.07 760.59 297.977C760.285 297.879 760.012 297.732 759.77 297.537C759.531 297.338 759.336 297.092 759.184 296.799C759.035 296.502 758.941 296.154 758.902 295.756H759.934C759.98 296.076 760.074 296.346 760.215 296.564C760.355 296.783 760.539 296.949 760.766 297.062C760.996 297.172 761.264 297.227 761.568 297.227C761.826 297.227 762.055 297.182 762.254 297.092C762.453 297.002 762.621 296.873 762.758 296.705C762.895 296.537 762.998 296.334 763.068 296.096C763.143 295.857 763.18 295.59 763.18 295.293C763.18 295.023 763.143 294.773 763.068 294.543C762.994 294.312 762.883 294.111 762.734 293.939C762.59 293.768 762.412 293.635 762.201 293.541C761.99 293.443 761.748 293.395 761.475 293.395C761.111 293.395 760.836 293.443 760.648 293.541C760.465 293.639 760.275 293.771 760.08 293.939ZM769.037 294.654H766.757V293.734H769.037C769.478 293.734 769.836 293.664 770.109 293.523C770.382 293.383 770.582 293.188 770.707 292.938C770.836 292.688 770.9 292.402 770.9 292.082C770.9 291.789 770.836 291.514 770.707 291.256C770.582 290.998 770.382 290.791 770.109 290.635C769.836 290.475 769.478 290.395 769.037 290.395H767.021V298H765.89V289.469H769.037C769.681 289.469 770.226 289.58 770.671 289.803C771.117 290.025 771.455 290.334 771.685 290.729C771.916 291.119 772.031 291.566 772.031 292.07C772.031 292.617 771.916 293.084 771.685 293.471C771.455 293.857 771.117 294.152 770.671 294.355C770.226 294.555 769.681 294.654 769.037 294.654ZM773.968 289.469H775.064L777.859 296.424L780.648 289.469H781.749L778.28 298H777.425L773.968 289.469ZM773.611 289.469H774.577L774.736 294.672V298H773.611V289.469ZM781.134 289.469H782.101V298H780.976V294.672L781.134 289.469Z" fill="black" fill-opacity="0.6"/>
<path d="M840.869 289.457H840.963V290.377H840.869C840.295 290.377 839.814 290.471 839.428 290.658C839.041 290.842 838.734 291.09 838.508 291.402C838.281 291.711 838.117 292.059 838.016 292.445C837.918 292.832 837.869 293.225 837.869 293.623V294.877C837.869 295.256 837.914 295.592 838.004 295.885C838.094 296.174 838.217 296.418 838.373 296.617C838.529 296.816 838.705 296.967 838.9 297.068C839.1 297.17 839.307 297.221 839.521 297.221C839.771 297.221 839.994 297.174 840.189 297.08C840.385 296.982 840.549 296.848 840.682 296.676C840.818 296.5 840.922 296.293 840.992 296.055C841.062 295.816 841.098 295.555 841.098 295.27C841.098 295.016 841.066 294.771 841.004 294.537C840.941 294.299 840.846 294.088 840.717 293.904C840.588 293.717 840.426 293.57 840.23 293.465C840.039 293.355 839.811 293.301 839.545 293.301C839.244 293.301 838.963 293.375 838.701 293.523C838.443 293.668 838.23 293.859 838.062 294.098C837.898 294.332 837.805 294.588 837.781 294.865L837.207 294.859C837.262 294.422 837.363 294.049 837.512 293.74C837.664 293.428 837.852 293.174 838.074 292.979C838.301 292.779 838.553 292.635 838.83 292.545C839.111 292.451 839.408 292.404 839.721 292.404C840.146 292.404 840.514 292.484 840.822 292.645C841.131 292.805 841.385 293.02 841.584 293.289C841.783 293.555 841.93 293.855 842.023 294.191C842.121 294.523 842.17 294.865 842.17 295.217C842.17 295.619 842.113 295.996 842 296.348C841.887 296.699 841.717 297.008 841.49 297.273C841.268 297.539 840.992 297.746 840.664 297.895C840.336 298.043 839.955 298.117 839.521 298.117C839.061 298.117 838.658 298.023 838.314 297.836C837.971 297.645 837.686 297.391 837.459 297.074C837.232 296.758 837.062 296.406 836.949 296.02C836.836 295.633 836.779 295.24 836.779 294.842V294.332C836.779 293.73 836.84 293.141 836.961 292.562C837.082 291.984 837.291 291.461 837.588 290.992C837.889 290.523 838.305 290.15 838.836 289.873C839.367 289.596 840.045 289.457 840.869 289.457ZM847.037 294.654H844.757V293.734H847.037C847.478 293.734 847.836 293.664 848.109 293.523C848.382 293.383 848.582 293.188 848.707 292.938C848.836 292.688 848.9 292.402 848.9 292.082C848.9 291.789 848.836 291.514 848.707 291.256C848.582 290.998 848.382 290.791 848.109 290.635C847.836 290.475 847.478 290.395 847.037 290.395H845.021V298H843.89V289.469H847.037C847.681 289.469 848.226 289.58 848.671 289.803C849.117 290.025 849.455 290.334 849.685 290.729C849.916 291.119 850.031 291.566 850.031 292.07C850.031 292.617 849.916 293.084 849.685 293.471C849.455 293.857 849.117 294.152 848.671 294.355C848.226 294.555 847.681 294.654 847.037 294.654ZM851.968 289.469H853.064L855.859 296.424L858.648 289.469H859.749L856.28 298H855.425L851.968 289.469ZM851.611 289.469H852.577L852.736 294.672V298H851.611V289.469ZM859.134 289.469H860.101V298H858.976V294.672L859.134 289.469Z" fill="black" fill-opacity="0.6"/>
<path d="M917.223 289.469V290.078L913.689 298H912.547L916.074 290.359H911.457V289.469H917.223ZM922.037 294.654H919.757V293.734H922.037C922.478 293.734 922.836 293.664 923.109 293.523C923.382 293.383 923.582 293.188 923.707 292.938C923.836 292.688 923.9 292.402 923.9 292.082C923.9 291.789 923.836 291.514 923.707 291.256C923.582 290.998 923.382 290.791 923.109 290.635C922.836 290.475 922.478 290.395 922.037 290.395H920.021V298H918.89V289.469H922.037C922.681 289.469 923.226 289.58 923.671 289.803C924.117 290.025 924.455 290.334 924.685 290.729C924.916 291.119 925.031 291.566 925.031 292.07C925.031 292.617 924.916 293.084 924.685 293.471C924.455 293.857 924.117 294.152 923.671 294.355C923.226 294.555 922.681 294.654 922.037 294.654ZM926.968 289.469H928.064L930.859 296.424L933.648 289.469H934.749L931.28 298H930.425L926.968 289.469ZM926.611 289.469H927.577L927.736 294.672V298H926.611V289.469ZM934.134 289.469H935.101V298H933.976V294.672L934.134 289.469Z" fill="black" fill-opacity="0.6"/>
<path d="M74 250C74 248.895 74.8954 248 76 248H100C101.105 248 102 248.895 102 250V280H74V250Z" fill="#4849A8"/>
<path d="M150 222C150 220.895 150.895 220 152 220H176C177.105 220 178 220.895 178 222V280H150V222Z" fill="#4849A8"/>
<path d="M226 201C226 199.895 226.895 199 228 199H252C253.105 199 254 199.895 254 201V280H226V201Z" fill="#4849A8"/>
<path d="M302 176C302 174.895 302.895 174 304 174H328C329.105 174 330 174.895 330 176V280H302V176Z" fill="#4849A8"/>
<path d="M378 184C378 182.895 378.895 182 380 182H404C405.105 182 406 182.895 406 184V280H378V184Z" fill="#4849A8"/>
<path d="M454 159C454 157.895 454.895 157 456 157H480C481.105 157 482 157.895 482 159V280H454V159Z" fill="#4849A8"/>
<path d="M530 166C530 164.895 530.895 164 532 164H556C557.105 164 558 164.895 558 166V280H530V166Z" fill="#4849A8"/>
<path d="M606 149C606 147.895 606.895 147 608 147H632C633.105 147 634 147.895 634 149V280H606V149Z" fill="#4849A8"/>
<path d="M682 138C682 136.895 682.895 136 684 136H708C709.105 136 710 136.895 710 138V280H682V138Z" fill="#4849A8"/>
<path d="M758 118C758 116.895 758.895 116 760 116H784C785.105 116 786 116.895 786 118V280H758V118Z" fill="#4849A8"/>
<path d="M834 80C834 78.8954 834.895 78 836 78H860C861.105 78 862 78.8954 862 80V280H834V80Z" fill="#4849A8"/>
<path d="M910 53C910 51.8954 910.895 51 912 51H936C937.105 51 938 51.8954 938 53V280H910V53Z" fill="#4849A8"/>
<defs>
<clipPath id="clip0_2087_22091">
<rect width="31" height="24" fill="white" transform="translate(224 282)"/>
</clipPath>
</defs>
</svg>
