<svg width="56" height="56" viewBox="0 0 56 56" fill="none" xmlns="http://www.w3.org/2000/svg">
<rect width="56" height="56" rx="28" fill="#2EAB8D"/>
<g clip-path="url(#clip0_2087_22205)">
<path d="M30.1923 38.4568C36.1976 37.4611 40.1028 31.7714 38.8532 25.5128C37.2216 17.2806 27.9359 14.4536 21.9653 19.1297C17.1402 22.8991 16.4807 30.3312 20.5247 34.9541C20.7156 35.1675 20.7503 35.3453 20.6809 35.612C20.4726 36.4654 20.2991 37.3189 20.1255 38.1901C20.0387 38.6168 20.0734 39.0258 20.4553 39.2925C20.8198 39.5414 21.1669 39.3991 21.4967 39.2036C22.2951 38.7413 23.0935 38.2968 23.8919 37.8345C24.0828 37.7278 24.239 37.71 24.4473 37.7811C25.7317 38.3323 27.0681 38.5812 28.6128 38.5812C29.0467 38.5812 29.6195 38.5457 30.1749 38.4568H30.1923ZM33.8892 25.6906C34.9827 25.6906 35.8852 26.6152 35.8678 27.7353C35.8678 28.8555 34.9653 29.7623 33.8718 29.7623C32.761 29.7623 31.8758 28.8733 31.8585 27.7353C31.8585 26.5974 32.761 25.6728 33.8892 25.6728V25.6906ZM23.1108 29.7801C22 29.7801 21.1148 28.8911 21.0975 27.7531C21.0975 26.633 21.9827 25.6906 23.0761 25.6906C24.2043 25.6906 25.1068 26.5974 25.1068 27.7353C25.1068 28.8555 24.2043 29.7623 23.1108 29.7801ZM26.4953 27.7353C26.4953 26.5974 27.3632 25.6906 28.474 25.6906C29.5848 25.6906 30.47 26.5796 30.4873 27.6998C30.4873 28.8555 29.6195 29.7623 28.4913 29.7623C27.3805 29.7623 26.5127 28.8733 26.5127 27.7176L26.4953 27.7353Z" fill="white"/>
<path d="M47.0454 25.815C46.3858 24.3748 45.2577 23.4502 43.6435 23.3791C43.2617 23.3613 43.1575 23.1835 43.0534 22.8457C40.7103 15.4847 33.4032 10.8796 26.0093 12.2309C20.1428 13.3155 16.1335 16.8182 14.0334 22.5612C13.8598 23.0413 13.7209 23.2902 13.1308 23.3791C11.5167 23.6458 10.3711 24.6948 9.76367 26.2061C8.56607 29.1576 8.80907 32.0558 10.4579 34.794C11.0307 35.7541 11.8464 36.4653 12.9573 36.7498C13.8077 36.9631 14.6061 36.7498 15.4045 36.5008C16.4286 36.1986 16.7583 35.683 16.6021 34.5984C16.3418 32.767 16.0467 30.9534 15.8037 29.1221C15.6649 28.1086 15.4392 27.1129 15.5607 26.0639C16.4286 18.8274 22.9372 13.6 30.0187 14.4712C35.3818 15.1291 39.7383 19.0407 41.0921 24.3748C41.3351 25.3349 41.5607 26.3128 41.4566 27.3263C41.3525 28.2508 41.2136 29.1576 41.0574 30.0644C40.8838 31.0246 40.8838 32.0202 40.4846 32.9448C39.8077 34.5272 38.9052 35.9497 37.7076 37.1409C35.0173 39.8257 31.8064 41.1593 28.04 41.017C27.4673 41.017 26.8945 41.017 26.3218 41.017C25.5407 41.0348 24.9159 41.6927 24.8812 42.4928C24.8812 42.7773 24.8812 43.044 24.8812 43.3284C24.8812 44.3597 25.506 44.9998 26.53 44.9998C27.8491 44.9998 29.1682 44.9998 30.4873 44.9998C31.494 44.9998 32.1188 44.3775 32.1188 43.3284C32.1188 43.044 32.223 42.9551 32.4659 42.8839C36.0587 41.8882 38.9226 39.808 41.0748 36.6964C41.2483 36.4475 41.3872 36.3942 41.6649 36.4831C42.2897 36.6609 42.9145 36.9098 43.5914 36.8387C44.7196 36.7142 45.6048 36.1097 46.2296 35.2029C48.2951 32.2514 48.5207 29.0865 47.0627 25.815H47.0454Z" fill="white"/>
</g>
<defs>
<clipPath id="clip0_2087_22205">
<rect width="39" height="33" fill="white" transform="translate(9 12)"/>
</clipPath>
</defs>
</svg>
