<svg width="56" height="52" viewBox="0 0 56 52" fill="none" xmlns="http://www.w3.org/2000/svg">
<path d="M28.9863 1.21533C30.011 1.21625 31.0314 1.3459 32.0238 1.60117C34.3392 2.12401 37.3517 2.99536 40.0778 2.47253C40.2926 3.89164 39.9144 5.33647 39.0322 6.4685C40.4525 8.51563 41.2127 10.9481 41.2107 13.4397V19.8382H16.762V13.4023C16.7825 6.66532 22.2494 1.21499 28.9863 1.21533Z" fill="#A86C4D"/>
<path d="M28.9863 1.21533C30.011 1.21625 31.0314 1.3459 32.0238 1.60117C34.3392 2.12401 37.3517 2.99536 40.0778 2.47253C40.2464 3.7783 39.9465 5.10164 39.2314 6.20714C36.793 6.24503 34.3629 5.91351 32.0238 5.2237C24.2891 3.2287 16.7531 9.0743 16.762 17.0621V13.4023C16.7825 6.66532 22.2494 1.21499 28.9863 1.21533Z" fill="#DE926A"/>
<path d="M28.9863 1.21533C30.011 1.21625 31.0314 1.3459 32.0238 1.60117C34.3392 2.12401 37.3517 2.99536 40.0778 2.47253C40.2926 3.89164 39.9144 5.33647 39.0322 6.4685C40.4525 8.51563 41.2127 10.9481 41.2107 13.4397V19.8382H16.762V13.4023C16.7825 6.66532 22.2494 1.21499 28.9863 1.21533Z" stroke="#45413C" stroke-width="0.88" stroke-linecap="round" stroke-linejoin="round"/>
<path d="M15.4549 18.8668C15.5787 17.931 16.2669 17.1685 17.1852 16.9498L17.9197 16.7505C19.0321 16.4363 19.7968 15.4167 19.7869 14.2608V11.7214C19.7897 10.6661 20.4985 9.74329 21.5173 9.46826C23.891 10.4159 26.4309 10.8773 28.9863 10.8251C31.5417 10.8773 34.0816 10.4159 36.4554 9.46826C37.4791 9.73858 38.1939 10.6625 38.1981 11.7214V14.2857C38.1883 15.4417 38.953 16.4613 40.0654 16.7755L40.7999 16.9747C41.7181 17.1934 42.4063 17.9559 42.5302 18.8917C42.6712 20.2272 41.62 21.3888 40.277 21.3814H40.1899C39.2821 29.958 29.4302 34.3357 22.4566 29.2612C19.8938 27.3963 18.2409 24.5332 17.9072 21.3814H17.7703C16.3914 21.429 15.294 20.2371 15.4549 18.8668Z" fill="#FFCEBF" stroke="#45413C" stroke-width="0.88" stroke-linecap="round" stroke-linejoin="round"/>
<path d="M35.7458 18.6427C35.7458 19.3805 34.9471 19.8417 34.308 19.4727C33.669 19.1039 33.669 18.1815 34.308 17.8126C34.4537 17.7284 34.619 17.6842 34.7873 17.6842C35.3196 17.677 35.7529 18.1103 35.7458 18.6427Z" fill="#45413C" stroke="#45413C" stroke-width="0.88" stroke-linecap="round" stroke-linejoin="round"/>
<path d="M22.2269 18.6427C22.2269 19.3805 23.0257 19.8417 23.6646 19.4727C24.3037 19.1039 24.3037 18.1815 23.6646 17.8126C23.5189 17.7284 23.3536 17.6842 23.1854 17.6842C22.6532 17.677 22.2198 18.1103 22.2269 18.6427Z" fill="#45413C" stroke="#45413C" stroke-width="0.88" stroke-linecap="round" stroke-linejoin="round"/>
<path d="M32.5217 24.4438C32.6811 24.4473 32.8311 24.52 32.9325 24.6431C33.038 24.7618 33.0838 24.9221 33.057 25.0788C32.5069 28.2123 28.7709 29.5753 26.3322 27.5322C25.5858 26.9068 25.0841 26.0379 24.9157 25.0788C24.8889 24.9221 24.9347 24.7618 25.0402 24.6431C25.1394 24.5172 25.2908 24.4438 25.451 24.4438H32.5217Z" fill="#FF6242"/>
<path d="M28.9863 26.1117C30.1103 26.0677 31.216 26.4056 32.1234 27.0702C30.4614 28.9211 27.5612 28.9211 25.8992 27.0702C26.793 26.4164 27.8794 26.079 28.9863 26.1117Z" fill="#FFA694"/>
<path d="M32.5217 24.4438C32.6811 24.4473 32.8311 24.52 32.9325 24.6431C33.038 24.7618 33.0838 24.9221 33.057 25.0788C32.5069 28.2123 28.7709 29.5753 26.3322 27.5322C25.5858 26.9068 25.0841 26.0379 24.9157 25.0788C24.8889 24.9221 24.9347 24.7618 25.0402 24.6431C25.1394 24.5172 25.2908 24.4438 25.451 24.4438H32.5217Z" stroke="#45413C" stroke-width="0.88" stroke-linecap="round" stroke-linejoin="round"/>
<path d="M35.1359 22.6884C35.1359 23.2634 36.1733 23.6227 37.0032 23.3353C37.3883 23.2019 37.6256 22.9553 37.6256 22.6884C37.6256 22.1135 36.5882 21.7542 35.7583 22.0416C35.3731 22.175 35.1359 22.4216 35.1359 22.6884Z" fill="#FFB59E"/>
<path d="M20.3472 22.6884C20.3472 23.2634 21.3845 23.6227 22.2144 23.3353C22.5995 23.2019 22.8368 22.9553 22.8368 22.6884C22.8368 22.1135 21.7995 21.7542 20.9696 22.0416C20.5844 22.175 20.3472 22.4216 20.3472 22.6884Z" fill="#FFB59E"/>
<path d="M19.8616 5.8209C20.7244 5.21539 20.608 3.90284 19.6523 3.45844C19.4607 3.36933 19.2512 3.32581 19.04 3.3312H18.0566C17.8435 3.34005 17.6726 3.15735 17.6955 2.94536L17.9819 0.0697074C18.1956 -1.59354 16.5287 -2.86451 14.9813 -2.218C14.8599 -2.16736 14.7435 -2.1057 14.6333 -2.03404C14.1131 -1.62937 13.4604 -1.43404 12.8034 -1.48628C11.9989 -1.57333 11.2601 -1.03419 11.0979 -0.241491C10.3553 3.30135 10.05 6.92181 10.1892 10.5388L16.2391 10.9746L16.3885 8.39777L19.8616 5.8209Z" fill="#FFCEBF"/>
<path d="M12.2431 0.904018C12.982 0.983138 13.7245 0.793089 14.3345 0.36878C15.5361 -0.424259 17.1578 -0.0360074 17.8699 1.21533L17.9819 0.107419C18.1956 -1.55594 16.5287 -2.82692 14.9813 -2.18041C14.86 -2.12965 14.7435 -2.0681 14.6333 -1.99644C14.1078 -1.60498 13.4555 -1.42308 12.8033 -1.48601C11.9989 -1.57305 11.2602 -1.03391 11.0979 -0.241215C10.9983 0.294138 10.9236 0.816974 10.8364 1.33981C11.2205 0.998296 11.7334 0.839482 12.2431 0.904018Z" fill="#FFDCD1"/>
<path d="M19.8616 5.8209C20.7244 5.21539 20.608 3.90284 19.6523 3.45844C19.4607 3.36933 19.2512 3.32581 19.04 3.3312H18.0566C17.8435 3.34005 17.6726 3.15735 17.6955 2.94536L17.9819 0.0697074C18.1956 -1.59354 16.5287 -2.86451 14.9813 -2.218C14.8599 -2.16736 14.7435 -2.1057 14.6333 -2.03404C14.1131 -1.62937 13.4604 -1.43404 12.8034 -1.48628C11.9989 -1.57333 11.2601 -1.03419 11.0979 -0.241491C10.3553 3.30135 10.05 6.92181 10.1892 10.5388L16.2391 10.9746L16.3885 8.39777L19.8616 5.8209Z" stroke="#45413C" stroke-width="0.88" stroke-linecap="round" stroke-linejoin="round"/>
<path opacity="0.15" d="M10.3137 49.1415C10.3024 50.579 25.856 51.4786 38.31 50.7609C44.099 50.4272 47.6642 49.8097 47.659 49.1415C47.6703 47.7041 32.1168 46.8045 19.6627 47.5222C13.8737 47.8558 10.3084 48.4734 10.3137 49.1415Z" fill="#45413C"/>
<path d="M29.173 31.365C27.4002 31.3391 25.6373 31.6343 23.9695 32.2364C21.6388 33.1361 19.0312 31.8892 18.2682 29.5102C16.4024 23.2108 15.9058 16.5853 16.8117 10.0781H9.268C8.86184 15.7973 8.86184 21.5379 9.268 27.257C9.73974 34.571 11.4225 41.7561 14.2473 48.5189H43.7751V46.6392C43.8676 38.4255 37.3825 31.6419 29.173 31.365Z" fill="#00B8F0"/>
<path d="M29.173 31.3654C27.4002 31.3394 25.6373 31.6347 23.9695 32.2367C21.6388 33.1365 19.0312 31.8896 18.2682 29.5106C17.1671 25.9616 16.5435 22.282 16.4134 18.5684C16.1704 23.6418 16.7977 28.7194 18.2682 33.5812C19.0296 35.9812 21.6654 37.2334 24.0068 36.3074C25.6746 35.7053 27.4375 35.41 29.2103 35.436C36.5681 35.6798 42.6658 41.2187 43.6131 48.5193H43.7751V46.6396C43.8676 38.4259 37.3825 31.6422 29.173 31.3654Z" fill="#009FD9"/>
<path d="M29.173 31.365C27.4002 31.3391 25.6373 31.6343 23.9695 32.2364C21.6388 33.1361 19.0312 31.8892 18.2682 29.5102C16.4024 23.2108 15.9058 16.5853 16.8117 10.0781H9.268C8.86184 15.7973 8.86184 21.5379 9.268 27.257C9.73974 34.571 11.4225 41.756 14.2473 48.5189H43.7751V46.6392C43.8676 38.4255 37.3825 31.6419 29.173 31.365Z" stroke="#45413C" stroke-width="0.88" stroke-linecap="round" stroke-linejoin="round"/>
<path d="M28.9863 30.9171C27.9156 30.9179 26.8504 30.7628 25.8243 30.4565V33.1206C25.8243 35.5546 28.4593 37.0759 30.5673 35.8589C31.5456 35.294 32.1482 34.2502 32.1482 33.1206V30.4565C31.1222 30.7628 30.057 30.9179 28.9863 30.9171Z" fill="#FFCEBF"/>
<path d="M28.9863 30.9171C27.9156 30.9179 26.8504 30.7628 25.8243 30.4565C25.8243 32.8907 28.4593 34.4119 30.5673 33.1949C31.5456 32.63 32.1482 31.5863 32.1482 30.4565C31.1222 30.7628 30.057 30.9179 28.9863 30.9171Z" fill="#FFB59E"/>
<path d="M28.9863 30.9171C27.9156 30.9179 26.8504 30.7628 25.8243 30.4565V33.1206C25.8243 35.5546 28.4593 37.0759 30.5673 35.8589C31.5456 35.294 32.1482 34.2502 32.1482 33.1206V30.4565C31.1222 30.7628 30.057 30.9179 28.9863 30.9171Z" stroke="#45413C" stroke-width="0.88" stroke-linecap="round" stroke-linejoin="round"/>
</svg>
