<svg width="189" height="44" viewBox="0 0 189 44" fill="none" xmlns="http://www.w3.org/2000/svg">
<g clip-path="url(#clip0_2087_21791)">
<path d="M39.2832 14.5781C39.3022 11.6801 38.0556 9.60296 35.4992 8.23921C33.5882 7.2164 33.6008 7.18483 33.6008 9.33778C33.6008 12.1537 33.6008 14.9632 33.6008 17.7791C33.6008 20.8476 33.6008 23.9223 33.6008 26.9907C33.6008 28.8533 32.7909 30.2486 31.1963 31.1704C27.3996 33.3738 23.5839 35.552 19.7808 37.7429C18.066 38.7278 16.3511 39.7253 14.6173 40.6913C14.0478 41.0133 14.0352 41.2091 14.6236 41.5184C15.4146 41.9288 16.136 42.4781 16.946 42.8317C18.876 43.6587 20.8313 43.6524 22.679 42.6044C27.0768 40.1168 31.4494 37.585 35.8219 35.0659C38.0683 33.7716 39.2643 31.8333 39.2643 29.2194C39.2643 24.339 39.2453 19.4586 39.2769 14.5781H39.2832Z" fill="#52D0B2"/>
<path d="M30.1899 26.3276C30.3101 25.6205 30.3228 24.9007 30.3165 24.1809C30.3101 21.6239 30.3165 19.0732 30.3165 16.5162H30.3228C30.3228 13.8455 30.3101 11.1748 30.3228 8.51049C30.3354 6.26914 29.4116 4.60234 27.4373 3.50377C25.906 2.65143 24.4126 1.72963 22.8749 0.88992C20.7488 -0.27179 18.5846 -0.322299 16.4585 0.883606C11.9974 3.42169 7.52357 5.95346 3.10673 8.57994C1.13244 9.74796 0.0313991 11.5852 0.0187434 13.9213C-0.0128958 19.0353 -0.00024008 24.1431 0.0124156 29.2571C0.0124156 31.8078 1.20838 33.6893 3.38516 34.9583C5.02407 35.9117 6.66298 36.8651 8.3272 37.7553C9.90283 38.6013 11.5354 38.6139 13.0984 37.7174C18.2556 34.7626 23.3875 31.7763 28.5383 28.8088C29.5128 28.2469 30.0001 27.3946 30.1899 26.3276ZM23.3685 25.3363C19.6983 27.4009 16.0092 29.4465 12.4087 31.6374C11.0798 32.4455 10.08 32.4581 8.75749 31.6058C8.41579 31.3911 8.13104 31.2207 7.8273 31.0186C6.44783 30.0968 5.63154 28.8467 5.63154 27.161C5.61888 23.6064 5.63154 20.0455 5.61888 16.4909C5.61888 14.6284 6.43518 13.2394 8.02347 12.3113C11.1431 10.493 14.269 8.68095 17.4266 6.91314C18.882 6.09868 20.3944 6.13656 21.8688 6.9447C22.4952 7.29195 23.0901 7.70865 23.7355 8.0054C24.3683 8.30214 24.5898 8.71252 24.5771 9.41334C24.5328 11.7052 24.5581 14.0034 24.5581 16.2952H24.5961C24.5961 18.5871 24.5771 20.8852 24.6024 23.1771C24.6151 24.1683 24.2417 24.8376 23.3622 25.3363H23.3685Z" fill="#52D0B2"/>
<path d="M21.2109 9.47032C21.2236 8.79476 21.0527 8.64323 20.4263 9.01573C17.2307 10.8846 14.0162 12.7282 10.808 14.5844C9.61199 15.2726 8.99819 16.3017 8.99819 17.6907C8.99819 21.422 9.00452 25.1534 8.98553 28.8848C8.98553 29.5856 9.1817 29.5982 9.71324 29.2762C11.1433 28.4239 12.5797 27.5842 14.0415 26.7823C14.4844 26.5361 14.6363 26.233 14.6236 25.7532C14.5983 24.8062 14.6173 23.8591 14.6173 22.9121C14.6173 22.0787 14.6616 21.2453 14.6047 20.4182C14.5287 19.3259 15.035 18.6377 15.9398 18.1263C17.4648 17.2677 18.9645 16.3585 20.4959 15.5188C21.0211 15.2347 21.2299 14.9 21.2173 14.3003C21.1793 12.6966 21.1919 11.0866 21.2173 9.47663L21.2109 9.47032Z" fill="#52D0B2"/>
<path d="M61.4244 2.47485H56.6468V9.21782H52.8185V12.9555H56.6468V24.0738C56.6468 26.2205 56.9822 27.9251 57.6593 29.1816C58.3301 30.4443 59.3298 31.3282 60.6524 31.8459C61.9686 32.3636 63.5948 32.6162 65.5121 32.6162H68.9988V28.2345H65.1262C63.9492 28.2345 63.038 27.9125 62.3925 27.2685C61.7471 26.6245 61.4244 25.7027 61.4244 24.4968V12.9555H68.9988V9.21782H61.4244V2.47485Z" fill="#252657"/>
<path d="M86.8939 9.81765C85.3436 9.21785 83.3946 8.91479 81.0407 8.91479C80.294 8.91479 79.5157 8.92742 78.6931 8.95899C77.8768 8.99056 77.0858 9.02213 76.3264 9.06632C75.5671 9.11052 74.871 9.16103 74.2382 9.21785V13.5553C74.9533 13.4985 75.7822 13.448 76.7124 13.4038C77.6426 13.3596 78.5981 13.328 79.5726 13.2965C80.5471 13.2712 81.4393 13.2523 82.243 13.2523C83.7047 13.2523 84.8121 13.6248 85.5588 14.3698C86.3054 15.1148 86.6788 16.2007 86.6788 17.6339V18.0633H81.3887C79.3511 18.0633 77.6047 18.3347 76.1366 18.8777C74.6749 19.4207 73.5485 20.2352 72.7575 21.3274C71.9666 22.4134 71.5742 23.7897 71.5742 25.4502C71.5742 27.1107 71.9159 28.3798 72.6057 29.5099C73.2954 30.64 74.2699 31.4987 75.5291 32.0859C76.7884 32.673 78.2691 32.9635 79.9586 32.9635C81.6482 32.9635 82.977 32.6667 84.1097 32.0859C85.2424 31.4987 86.1346 30.6527 86.78 29.5541C87.0711 29.0616 87.2989 28.506 87.4887 27.8999V32.3637H91.4879V17.8865C91.4879 15.7146 91.1083 13.972 90.3489 12.6714C89.5896 11.3708 88.4316 10.4174 86.8876 9.81765H86.8939ZM83.7933 28.6891C82.9897 29.0174 82.1417 29.1816 81.2558 29.1816C79.7371 29.1816 78.5728 28.8343 77.7692 28.1272C76.9656 27.4264 76.5669 26.492 76.5669 25.3176C76.5669 24.1433 76.9656 23.1899 77.7692 22.4639C78.5728 21.7315 79.7308 21.3716 81.2558 21.3716H86.6788V23.7771C86.6218 25.1787 86.3244 26.2647 85.7992 27.0413C85.2677 27.8115 84.6033 28.3671 83.7996 28.6954L83.7933 28.6891Z" fill="#252657"/>
<path d="M114.819 9.21777H109.655L104.84 17.6339H104.194L99.0687 9.21777H93.5635L100.765 20.7023L93.2218 32.3573H98.3853L104.106 23.2972H104.707L110.731 32.3573H116.242L108.124 20.3235L114.819 9.21777Z" fill="#252657"/>
<path d="M131.17 9.81765C129.62 9.21785 127.671 8.91479 125.317 8.91479C124.57 8.91479 123.792 8.92742 122.969 8.95899C122.153 8.99056 121.362 9.02213 120.602 9.06632C119.843 9.11052 119.147 9.16103 118.514 9.21785V13.5553C119.229 13.4985 120.058 13.448 120.988 13.4038C121.919 13.3596 122.874 13.328 123.849 13.2965C124.823 13.2712 125.715 13.2523 126.519 13.2523C127.981 13.2523 129.088 13.6248 129.835 14.3698C130.581 15.1148 130.955 16.2007 130.955 17.6339V18.0633H125.665C123.627 18.0633 121.881 18.3347 120.413 18.8777C118.951 19.4207 117.824 20.2352 117.033 21.3274C116.242 22.4134 115.85 23.7897 115.85 25.4502C115.85 27.1107 116.192 28.3798 116.882 29.5099C117.571 30.64 118.546 31.4987 119.805 32.0859C121.064 32.673 122.545 32.9635 124.235 32.9635C125.924 32.9635 127.253 32.6667 128.386 32.0859C129.518 31.4987 130.411 30.6527 131.056 29.5541C131.347 29.0616 131.575 28.506 131.765 27.8999V32.3637H135.764V17.8865C135.764 15.7146 135.384 13.972 134.625 12.6714C133.866 11.3708 132.708 10.4174 131.164 9.81765H131.17ZM128.069 28.6891C127.266 29.0174 126.418 29.1816 125.532 29.1816C124.013 29.1816 122.849 28.8343 122.045 28.1272C121.241 27.4264 120.843 26.492 120.843 25.3176C120.843 24.1433 121.241 23.1899 122.045 22.4639C122.849 21.7315 124.007 21.3716 125.532 21.3716H130.955V23.7771C130.898 25.1787 130.6 26.2647 130.075 27.0413C129.544 27.8115 128.879 28.3671 128.076 28.6954L128.069 28.6891Z" fill="#252657"/>
<path d="M159.614 11.9642C158.639 10.8782 157.475 10.0259 156.127 9.40714C154.779 8.79472 153.273 8.48535 151.609 8.48535C149.856 8.48535 148.255 8.87048 146.787 9.64706C145.325 10.4173 144.148 11.5917 143.256 13.1701C142.952 13.7067 142.699 14.2939 142.484 14.9316V9.21773H138.485V40.9438H143.522V29.0868C144.42 30.4189 145.521 31.4102 146.838 32.0542C148.299 32.7676 149.875 33.1275 151.571 33.1275C153.267 33.1275 154.741 32.8118 156.089 32.1805C157.437 31.5491 158.601 30.6904 159.576 29.6045C160.55 28.5185 161.297 27.2495 161.816 25.8037C162.334 24.3578 162.588 22.8173 162.588 21.1884V20.3739C162.588 18.7135 162.334 17.1666 161.835 15.7397C161.335 14.3065 160.594 13.0501 159.62 11.9642H159.614ZM156.665 24.9513C156.076 26.1699 155.254 27.1106 154.191 27.7862C153.127 28.4617 151.894 28.7963 150.489 28.7963C149.255 28.7963 148.09 28.5249 147.002 27.9819C145.914 27.4389 145.028 26.6434 144.357 25.6016C143.68 24.5599 143.345 23.3035 143.345 21.845V20.0014C143.345 18.4862 143.674 17.1919 144.332 16.1185C144.99 15.0452 145.863 14.2245 146.958 13.6499C148.046 13.0754 149.223 12.7913 150.489 12.7913C151.925 12.7913 153.165 13.1259 154.21 13.8014C155.254 14.477 156.076 15.4114 156.665 16.611C157.253 17.8106 157.544 19.1996 157.544 20.778C157.544 22.3564 157.253 23.7454 156.665 24.964V24.9513Z" fill="#252657"/>
<path d="M188.247 15.7397C187.747 14.3065 187.007 13.0501 186.032 11.9642C185.058 10.8782 183.893 10.0259 182.546 9.40714C181.198 8.79472 179.692 8.48535 178.028 8.48535C176.275 8.48535 174.674 8.87048 173.206 9.64706C171.744 10.4173 170.567 11.5917 169.675 13.1701C169.371 13.7067 169.118 14.2939 168.903 14.9316V9.21773H164.904V40.9438H169.941V29.0931C170.839 30.4253 171.94 31.4165 173.256 32.0605C174.718 32.7739 176.294 33.1338 177.99 33.1338C179.685 33.1338 181.16 32.8181 182.508 32.1868C183.855 31.5554 185.02 30.6967 185.994 29.6108C186.969 28.5249 187.715 27.2558 188.234 25.81C188.747 24.3642 189.006 22.8236 189.006 21.1947V20.3803C189.006 18.7198 188.753 17.1729 188.253 15.746L188.247 15.7397ZM183.083 24.9513C182.495 26.1699 181.672 27.1106 180.609 27.7862C179.546 28.4617 178.312 28.7963 176.908 28.7963C175.674 28.7963 174.509 28.5249 173.421 27.9819C172.332 27.4389 171.447 26.6434 170.776 25.6016C170.099 24.5599 169.763 23.3035 169.763 21.845V20.0014C169.763 18.4862 170.092 17.1919 170.751 16.1185C171.409 15.0452 172.288 14.2245 173.377 13.6499C174.465 13.0754 175.642 12.7913 176.908 12.7913C178.344 12.7913 179.584 13.1259 180.628 13.8014C181.672 14.477 182.495 15.4114 183.083 16.611C183.672 17.8106 183.963 19.1996 183.963 20.778C183.963 22.3564 183.672 23.7454 183.083 24.964V24.9513Z" fill="#252657"/>
</g>
<defs>
<clipPath id="clip0_2087_21791">
<rect width="189" height="43.4189" fill="white"/>
</clipPath>
</defs>
</svg>
